<svg width="6961" height="4914" viewBox="0 0 6961 4914" fill="none" xmlns="http://www.w3.org/2000/svg">
<path d="M1113.07 4436.66L895.453 4558.64C959.51 4477.91 998.12 4441.05 1028.83 4293.63C1047.08 4387.8 1097.55 4399.66 1242.06 4362.96L1139.4 4420.87L1073.59 4390.16L1059.55 4393.67L1113.07 4436.66Z" fill="#303754"/>
<path d="M1134.13 4473.52L906.859 4610.41C1073.66 4559.4 1133.81 4569.58 1162.21 4683.24C1184.94 4567.58 1220.24 4495.98 1335.96 4353.3L1162.21 4456.85L1156.07 4536.7L1144.66 4547.23L1134.13 4473.52Z" fill="#303754"/>
<path d="M1113.07 4436.66L895.453 4558.64C959.51 4477.91 998.12 4441.05 1028.83 4293.63C1047.08 4387.8 1097.55 4399.66 1242.06 4362.96L1139.4 4420.87L1073.59 4390.16L1059.55 4393.67L1113.07 4436.66Z" fill="#303754"/>
<path d="M1134.13 4473.52L906.859 4610.41C1073.66 4559.4 1133.81 4569.58 1162.21 4683.24C1184.94 4567.58 1220.24 4495.98 1335.96 4353.3L1162.21 4456.85L1156.07 4536.7L1144.66 4547.23L1134.13 4473.52Z" fill="#303754"/>
<path d="M2323.46 4373.97L2105.84 4495.94C2169.9 4415.21 2208.51 4378.36 2239.22 4230.94C2257.47 4325.1 2307.94 4336.96 2452.46 4300.26L2349.79 4358.17L2283.98 4327.46L2269.94 4330.97L2323.46 4373.97Z" fill="#303754"/>
<path d="M2344.51 4410.83L2117.24 4547.72C2284.04 4496.7 2344.19 4506.89 2372.59 4620.55C2395.32 4504.88 2430.62 4433.28 2546.34 4290.61L2372.59 4394.15L2366.45 4474.01L2355.04 4484.54L2344.51 4410.83Z" fill="#303754"/>
<path d="M3533.84 4373.97L3316.22 4495.94C3380.28 4415.21 3418.89 4378.36 3449.6 4230.94C3467.85 4325.1 3518.32 4336.96 3662.83 4300.26L3560.16 4358.17L3494.35 4327.46L3480.31 4330.97L3533.84 4373.97Z" fill="#303754"/>
<path d="M3554.9 4410.83L3327.63 4547.72C3494.43 4496.7 3554.58 4506.89 3582.98 4620.55C3605.72 4504.88 3641.01 4433.28 3756.73 4290.61L3582.98 4394.15L3576.84 4474.01L3565.43 4484.54L3554.9 4410.83Z" fill="#303754"/>
<path d="M4744.23 4373.97L4526.61 4495.94C4590.67 4415.21 4629.28 4378.36 4659.99 4230.94C4678.24 4325.1 4728.71 4336.96 4873.22 4300.26L4770.55 4358.17L4704.74 4327.46L4690.7 4330.97L4744.23 4373.97Z" fill="#303754"/>
<path d="M4765.29 4410.83L4538.02 4547.72C4704.81 4496.7 4764.96 4506.89 4793.37 4620.55C4816.1 4504.88 4851.4 4433.28 4967.11 4290.61L4793.37 4394.15L4787.23 4474.01L4775.82 4484.54L4765.29 4410.83Z" fill="#303754"/>
<path d="M5954.62 4373.97L5737 4495.94C5801.06 4415.21 5839.67 4378.36 5870.38 4230.94C5888.63 4325.1 5939.1 4336.96 6083.61 4300.26L5980.94 4358.17L5915.13 4327.46L5901.09 4330.97L5954.62 4373.97Z" fill="#303754"/>
<path d="M5975.68 4410.83L5748.41 4547.72C5915.2 4496.7 5975.35 4506.89 6003.76 4620.55C6026.49 4504.88 6061.79 4433.28 6177.5 4290.61L6003.76 4394.15L5997.62 4474.01L5986.21 4484.54L5975.68 4410.83Z" fill="#303754"/>
<path d="M1100.92 3123.91L883.297 3245.89C947.354 3165.16 985.964 3128.3 1016.68 2980.88C1034.93 3075.05 1085.4 3086.91 1229.91 3050.21L1127.24 3108.12L1061.43 3077.41L1047.39 3080.92L1100.92 3123.91Z" fill="#303754"/>
<path d="M1121.98 3160.77L894.703 3297.66C1061.5 3246.65 1121.65 3256.83 1150.06 3370.49C1172.79 3254.83 1208.08 3183.23 1323.8 3040.55L1150.06 3144.1L1143.91 3223.95L1132.51 3234.48L1121.98 3160.77Z" fill="#303754"/>
<path d="M1100.92 3123.91L883.297 3245.89C947.354 3165.16 985.964 3128.3 1016.68 2980.88C1034.93 3075.05 1085.4 3086.91 1229.91 3050.21L1127.24 3108.12L1061.43 3077.41L1047.39 3080.92L1100.92 3123.91Z" fill="#303754"/>
<path d="M1121.98 3160.77L894.703 3297.66C1061.5 3246.65 1121.65 3256.83 1150.06 3370.49C1172.79 3254.83 1208.08 3183.23 1323.8 3040.55L1150.06 3144.1L1143.91 3223.95L1132.51 3234.48L1121.98 3160.77Z" fill="#303754"/>
<path d="M2311.31 3061.22L2093.69 3183.19C2157.74 3102.46 2196.35 3065.61 2227.07 2918.19C2245.32 3012.35 2295.79 3024.21 2440.3 2987.51L2337.63 3045.42L2271.82 3014.71L2257.78 3018.22L2311.31 3061.22Z" fill="#303754"/>
<path d="M2332.36 3098.08L2105.09 3234.97C2271.88 3183.95 2332.03 3194.14 2360.44 3307.8C2383.17 3192.13 2418.47 3120.53 2534.18 2977.86L2360.44 3081.4L2354.3 3161.26L2342.89 3171.79L2332.36 3098.08Z" fill="#303754"/>
<path d="M3521.7 3061.22L3304.08 3183.19C3368.14 3102.46 3406.75 3065.61 3437.46 2918.19C3455.71 3012.35 3506.18 3024.21 3650.69 2987.51L3548.02 3045.42L3482.21 3014.71L3468.17 3018.22L3521.7 3061.22Z" fill="#303754"/>
<path d="M3542.76 3098.08L3315.48 3234.97C3482.28 3183.95 3542.43 3194.14 3570.84 3307.8C3593.57 3192.13 3628.87 3120.53 3744.58 2977.86L3570.84 3081.4L3564.69 3161.26L3553.29 3171.79L3542.76 3098.08Z" fill="#303754"/>
<path d="M4732.07 3061.22L4514.45 3183.19C4578.51 3102.46 4617.12 3065.61 4647.83 2918.19C4666.08 3012.35 4716.55 3024.21 4861.06 2987.51L4758.4 3045.42L4692.59 3014.71L4678.55 3018.22L4732.07 3061.22Z" fill="#303754"/>
<path d="M4753.14 3098.08L4525.87 3234.97C4692.66 3183.95 4752.81 3194.14 4781.22 3307.8C4803.95 3192.13 4839.25 3120.53 4954.96 2977.86L4781.22 3081.4L4775.08 3161.26L4763.67 3171.79L4753.14 3098.08Z" fill="#303754"/>
<path d="M5942.46 3061.22L5724.84 3183.19C5788.9 3102.46 5827.51 3065.61 5858.22 2918.19C5876.47 3012.35 5926.94 3024.21 6071.46 2987.51L5968.79 3045.42L5902.98 3014.71L5888.94 3018.22L5942.46 3061.22Z" fill="#303754"/>
<path d="M5963.52 3098.08L5736.25 3234.97C5903.05 3183.95 5963.2 3194.14 5991.6 3307.8C6014.33 3192.13 6049.63 3120.53 6165.35 2977.86L5991.6 3081.4L5985.46 3161.26L5974.05 3171.79L5963.52 3098.08Z" fill="#303754"/>
<path d="M461.174 3780.29L243.555 3902.26C307.612 3821.53 346.222 3784.68 376.934 3637.26C395.185 3731.42 445.653 3743.28 590.166 3706.58L487.499 3764.5L421.687 3733.78L407.647 3737.29L461.174 3780.29Z" fill="#303754"/>
<path d="M482.233 3817.15L254.961 3954.04C421.758 3903.03 481.908 3913.21 510.313 4026.88C533.043 3911.21 568.342 3839.61 684.057 3696.94L510.313 3800.48L504.17 3880.33L492.763 3890.86L482.233 3817.15Z" fill="#303754"/>
<path d="M461.174 3780.29L243.555 3902.26C307.612 3821.53 346.222 3784.68 376.934 3637.26C395.185 3731.42 445.653 3743.28 590.166 3706.58L487.499 3764.5L421.687 3733.78L407.647 3737.29L461.174 3780.29Z" fill="#303754"/>
<path d="M482.233 3817.15L254.961 3954.04C421.758 3903.03 481.908 3913.21 510.313 4026.88C533.043 3911.21 568.342 3839.61 684.057 3696.94L510.313 3800.48L504.17 3880.33L492.763 3890.86L482.233 3817.15Z" fill="#303754"/>
<path d="M1671.56 3717.59L1453.94 3839.57C1517.99 3758.84 1556.6 3721.98 1587.32 3574.56C1605.57 3668.73 1656.04 3680.59 1800.55 3643.88L1697.88 3701.8L1632.07 3671.09L1618.03 3674.6L1671.56 3717.59Z" fill="#303754"/>
<path d="M1692.62 3754.45L1465.35 3891.34C1632.15 3840.33 1692.3 3850.51 1720.7 3964.17C1743.43 3848.51 1778.73 3776.91 1894.45 3634.23L1720.7 3737.78L1714.56 3817.63L1703.15 3828.16L1692.62 3754.45Z" fill="#303754"/>
<path d="M2881.95 3717.59L2664.33 3839.57C2728.39 3758.84 2767 3721.98 2797.71 3574.56C2815.96 3668.73 2866.43 3680.59 3010.94 3643.88L2908.27 3701.8L2842.46 3671.09L2828.42 3674.6L2881.95 3717.59Z" fill="#303754"/>
<path d="M2903.01 3754.45L2675.73 3891.34C2842.53 3840.33 2902.68 3850.51 2931.09 3964.17C2953.82 3848.51 2989.12 3776.91 3104.83 3634.23L2931.09 3737.78L2924.94 3817.63L2913.54 3828.16L2903.01 3754.45Z" fill="#303754"/>
<path d="M4092.34 3717.59L3874.72 3839.57C3938.78 3758.84 3977.39 3721.98 4008.1 3574.56C4026.35 3668.73 4076.82 3680.59 4221.33 3643.88L4118.66 3701.8L4052.85 3671.09L4038.81 3674.6L4092.34 3717.59Z" fill="#303754"/>
<path d="M4113.4 3754.45L3886.12 3891.34C4052.92 3840.33 4113.07 3850.51 4141.48 3964.17C4164.21 3848.51 4199.51 3776.91 4315.22 3634.23L4141.48 3737.78L4135.33 3817.63L4123.93 3828.16L4113.4 3754.45Z" fill="#303754"/>
<path d="M5302.73 3717.59L5085.11 3839.57C5149.17 3758.84 5187.78 3721.98 5218.49 3574.56C5236.74 3668.73 5287.21 3680.59 5431.72 3643.88L5329.05 3701.8L5263.24 3671.09L5249.2 3674.6L5302.73 3717.59Z" fill="#303754"/>
<path d="M5323.79 3754.45L5096.52 3891.34C5263.31 3840.33 5323.46 3850.51 5351.87 3964.17C5374.6 3848.51 5409.9 3776.91 5525.61 3634.23L5351.87 3737.78L5345.73 3817.63L5334.32 3828.16L5323.79 3754.45Z" fill="#303754"/>
<path d="M6513.12 3717.59L6295.5 3839.57C6359.56 3758.84 6398.17 3721.98 6428.88 3574.56C6447.13 3668.73 6497.6 3680.59 6642.11 3643.88L6539.44 3701.8L6473.63 3671.09L6459.59 3674.6L6513.12 3717.59Z" fill="#303754"/>
<path d="M6534.18 3754.45L6306.91 3891.34C6473.7 3840.33 6533.85 3850.51 6562.26 3964.17C6584.99 3848.51 6620.29 3776.91 6736 3634.23L6562.26 3737.78L6556.12 3817.63L6544.71 3828.16L6534.18 3754.45Z" fill="#303754"/>
<path d="M1094.51 1748.46L876.891 1870.43C940.948 1789.7 979.558 1752.85 1010.27 1605.43C1028.52 1699.59 1078.99 1711.46 1223.5 1674.75L1120.84 1732.67L1055.02 1701.95L1040.98 1705.46L1094.51 1748.46Z" fill="#303754"/>
<path d="M1115.57 1785.33L888.297 1922.22C1055.09 1871.2 1115.24 1881.39 1143.65 1995.05C1166.38 1879.38 1201.68 1807.78 1317.39 1665.11L1143.65 1768.65L1137.51 1848.51L1126.1 1859.04L1115.57 1785.33Z" fill="#303754"/>
<path d="M1094.51 1748.46L876.891 1870.43C940.948 1789.7 979.558 1752.85 1010.27 1605.43C1028.52 1699.59 1078.99 1711.46 1223.5 1674.75L1120.84 1732.67L1055.02 1701.95L1040.98 1705.46L1094.51 1748.46Z" fill="#303754"/>
<path d="M1115.57 1785.33L888.297 1922.22C1055.09 1871.2 1115.24 1881.39 1143.65 1995.05C1166.38 1879.38 1201.68 1807.78 1317.39 1665.11L1143.65 1768.65L1137.51 1848.51L1126.1 1859.04L1115.57 1785.33Z" fill="#303754"/>
<path d="M2304.9 1685.78L2087.28 1807.75C2151.34 1727.02 2189.95 1690.17 2220.66 1542.75C2238.91 1636.91 2289.38 1648.78 2433.89 1612.07L2331.23 1669.99L2265.41 1639.27L2251.37 1642.78L2304.9 1685.78Z" fill="#303754"/>
<path d="M2325.96 1722.64L2098.69 1859.53C2265.48 1808.51 2325.63 1818.7 2354.04 1932.36C2376.77 1816.7 2412.07 1745.09 2527.78 1602.42L2354.04 1705.97L2347.9 1785.82L2336.49 1796.35L2325.96 1722.64Z" fill="#303754"/>
<path d="M3515.29 1685.78L3297.67 1807.75C3361.73 1727.02 3400.34 1690.17 3431.05 1542.75C3449.3 1636.91 3499.77 1648.78 3644.28 1612.07L3541.62 1669.99L3475.8 1639.27L3461.76 1642.78L3515.29 1685.78Z" fill="#303754"/>
<path d="M3536.36 1722.64L3309.09 1859.53C3475.88 1808.51 3536.03 1818.7 3564.44 1932.36C3587.17 1816.7 3622.47 1745.09 3738.18 1602.42L3564.44 1705.97L3558.3 1785.82L3546.89 1796.35L3536.36 1722.64Z" fill="#303754"/>
<path d="M4725.68 1685.78L4508.06 1807.75C4572.12 1727.02 4610.73 1690.17 4641.44 1542.75C4659.69 1636.91 4710.16 1648.78 4854.67 1612.07L4752.01 1669.99L4686.19 1639.27L4672.15 1642.78L4725.68 1685.78Z" fill="#303754"/>
<path d="M4746.75 1722.64L4519.48 1859.53C4686.27 1808.51 4746.42 1818.7 4774.83 1932.36C4797.56 1816.7 4832.86 1745.09 4948.57 1602.42L4774.83 1705.97L4768.69 1785.82L4757.28 1796.35L4746.75 1722.64Z" fill="#303754"/>
<path d="M5936.06 1685.78L5718.45 1807.75C5782.5 1727.02 5821.11 1690.17 5851.82 1542.75C5870.08 1636.91 5920.54 1648.78 6065.06 1612.07L5962.39 1669.99L5896.58 1639.27L5882.54 1642.78L5936.06 1685.78Z" fill="#303754"/>
<path d="M5957.14 1722.64L5729.87 1859.53C5896.66 1808.51 5956.81 1818.7 5985.22 1932.36C6007.95 1816.7 6043.25 1745.09 6158.96 1602.42L5985.22 1705.97L5979.08 1785.82L5967.67 1796.35L5957.14 1722.64Z" fill="#303754"/>
<path d="M454.776 2404.84L237.156 2526.82C301.214 2446.09 339.823 2409.23 370.536 2261.81C388.787 2355.98 439.255 2367.84 583.768 2331.13L481.101 2389.05L415.288 2358.34L401.248 2361.85L454.776 2404.84Z" fill="#303754"/>
<path d="M475.834 2441.71L248.562 2578.6C415.359 2527.58 475.509 2537.77 503.914 2651.43C526.645 2535.77 561.943 2464.16 677.659 2321.49L503.914 2425.04L497.772 2504.89L486.364 2515.42L475.834 2441.71Z" fill="#303754"/>
<path d="M454.776 2404.84L237.156 2526.82C301.214 2446.09 339.823 2409.23 370.536 2261.81C388.787 2355.98 439.255 2367.84 583.768 2331.13L481.101 2389.05L415.288 2358.34L401.248 2361.85L454.776 2404.84Z" fill="#303754"/>
<path d="M475.834 2441.71L248.562 2578.6C415.359 2527.58 475.509 2537.77 503.914 2651.43C526.645 2535.77 561.943 2464.16 677.659 2321.49L503.914 2425.04L497.772 2504.89L486.364 2515.42L475.834 2441.71Z" fill="#303754"/>
<path d="M1665.17 2342.15L1447.55 2464.12C1511.6 2383.39 1550.21 2346.54 1580.93 2199.12C1599.18 2293.28 1649.65 2305.14 1794.16 2268.44L1691.49 2326.35L1625.68 2295.64L1611.64 2299.15L1665.17 2342.15Z" fill="#303754"/>
<path d="M1686.23 2379.01L1458.95 2515.9C1625.75 2464.89 1685.9 2475.07 1714.31 2588.74C1737.04 2473.07 1772.33 2401.47 1888.05 2258.8L1714.31 2362.34L1708.16 2442.19L1696.76 2452.72L1686.23 2379.01Z" fill="#303754"/>
<path d="M2875.56 2342.15L2657.94 2464.12C2721.99 2383.39 2760.6 2346.54 2791.32 2199.12C2809.57 2293.28 2860.04 2305.14 3004.55 2268.44L2901.88 2326.35L2836.07 2295.64L2822.03 2299.15L2875.56 2342.15Z" fill="#303754"/>
<path d="M2896.62 2379.01L2669.34 2515.9C2836.14 2464.89 2896.29 2475.07 2924.7 2588.74C2947.43 2473.07 2982.72 2401.47 3098.44 2258.8L2924.7 2362.34L2918.55 2442.19L2907.15 2452.72L2896.62 2379.01Z" fill="#303754"/>
<path d="M4085.94 2342.15L3868.32 2464.12C3932.38 2383.39 3970.99 2346.54 4001.7 2199.12C4019.95 2293.28 4070.42 2305.14 4214.93 2268.44L4112.26 2326.35L4046.45 2295.64L4032.41 2299.15L4085.94 2342.15Z" fill="#303754"/>
<path d="M4107.01 2379.01L3879.73 2515.9C4046.53 2464.89 4106.68 2475.07 4135.09 2588.74C4157.82 2473.07 4193.12 2401.47 4308.83 2258.8L4135.09 2362.34L4128.94 2442.19L4117.54 2452.72L4107.01 2379.01Z" fill="#303754"/>
<path d="M5296.33 2342.15L5078.71 2464.12C5142.77 2383.39 5181.38 2346.54 5212.09 2199.12C5230.34 2293.28 5280.81 2305.14 5425.32 2268.44L5322.66 2326.35L5256.84 2295.64L5242.8 2299.15L5296.33 2342.15Z" fill="#303754"/>
<path d="M5317.39 2379.01L5090.12 2515.9C5256.91 2464.89 5317.06 2475.07 5345.47 2588.74C5368.2 2473.07 5403.5 2401.47 5519.21 2258.8L5345.47 2362.34L5339.33 2442.19L5327.92 2452.72L5317.39 2379.01Z" fill="#303754"/>
<path d="M6506.71 2342.15L6289.09 2464.12C6353.15 2383.39 6391.76 2346.54 6422.47 2199.12C6440.72 2293.28 6491.19 2305.14 6635.71 2268.44L6533.04 2326.35L6467.23 2295.64L6453.19 2299.15L6506.71 2342.15Z" fill="#303754"/>
<path d="M6527.78 2379.01L6300.51 2515.9C6467.3 2464.89 6527.45 2475.07 6555.86 2588.74C6578.59 2473.07 6613.89 2401.47 6729.6 2258.8L6555.86 2362.34L6549.72 2442.19L6538.31 2452.72L6527.78 2379.01Z" fill="#303754"/>
<path d="M1082.35 435.727L864.734 557.7C928.792 476.97 967.402 440.115 998.114 292.695C1016.36 386.858 1066.83 398.722 1211.35 362.018L1108.68 419.933L1042.87 389.22L1028.83 392.73L1082.35 435.727Z" fill="#303754"/>
<path d="M1103.42 472.584L876.148 609.474C1042.95 558.46 1103.1 568.645 1131.5 682.306C1154.23 566.64 1189.53 495.038 1305.24 352.367L1131.5 455.912L1125.36 535.764L1113.95 546.294L1103.42 472.584Z" fill="#303754"/>
<path d="M1082.35 435.727L864.734 557.7C928.792 476.97 967.402 440.115 998.114 292.695C1016.36 386.858 1066.83 398.722 1211.35 362.018L1108.68 419.933L1042.87 389.22L1028.83 392.73L1082.35 435.727Z" fill="#303754"/>
<path d="M1103.42 472.584L876.148 609.474C1042.95 558.46 1103.1 568.645 1131.5 682.306C1154.23 566.64 1189.53 495.038 1305.24 352.367L1131.5 455.912L1125.36 535.764L1113.95 546.294L1103.42 472.584Z" fill="#303754"/>
<path d="M2292.74 373.032L2075.12 495.004C2139.18 414.275 2177.79 377.42 2208.5 230C2226.76 324.163 2277.22 336.027 2421.74 299.322L2319.07 357.237L2253.26 326.525L2239.22 330.035L2292.74 373.032Z" fill="#303754"/>
<path d="M2313.81 409.897L2086.54 546.787C2253.34 495.772 2313.49 505.957 2341.89 619.619C2364.62 503.953 2399.92 432.351 2515.64 289.68L2341.89 393.224L2335.75 473.077L2324.34 483.607L2313.81 409.897Z" fill="#303754"/>
<path d="M3503.14 373.032L3285.52 495.004C3349.57 414.275 3388.18 377.42 3418.9 230C3437.15 324.163 3487.61 336.027 3632.13 299.322L3529.46 357.237L3463.65 326.525L3449.61 330.035L3503.14 373.032Z" fill="#303754"/>
<path d="M3524.2 409.897L3296.93 546.787C3463.73 495.772 3523.88 505.957 3552.28 619.619C3575.01 503.953 3610.31 432.351 3726.03 289.68L3552.28 393.224L3546.14 473.077L3534.73 483.607L3524.2 409.897Z" fill="#303754"/>
<path d="M4713.53 373.032L4495.91 495.004C4559.96 414.275 4598.57 377.42 4629.29 230C4647.54 324.163 4698 336.027 4842.52 299.322L4739.85 357.237L4674.04 326.525L4660 330.035L4713.53 373.032Z" fill="#303754"/>
<path d="M4734.59 409.897L4507.32 546.787C4674.12 495.772 4734.27 505.957 4762.67 619.619C4785.4 503.953 4820.7 432.351 4936.42 289.68L4762.67 393.224L4756.53 473.077L4745.12 483.607L4734.59 409.897Z" fill="#303754"/>
<path d="M5923.91 373.032L5706.29 495.004C5770.35 414.275 5808.96 377.42 5839.67 230C5857.92 324.163 5908.39 336.027 6052.9 299.322L5950.23 357.237L5884.42 326.525L5870.38 330.035L5923.91 373.032Z" fill="#303754"/>
<path d="M5944.98 409.897L5717.71 546.787C5884.51 495.772 5944.66 505.957 5973.06 619.619C5995.79 503.953 6031.09 432.351 6146.81 289.68L5973.06 393.224L5966.92 473.077L5955.51 483.607L5944.98 409.897Z" fill="#303754"/>
<path d="M442.619 1092.09L225 1214.07C289.057 1133.34 327.667 1096.48 358.38 949.062C376.631 1043.23 427.098 1055.09 571.612 1018.38L468.944 1076.3L403.132 1045.59L389.092 1049.1L442.619 1092.09Z" fill="#303754"/>
<path d="M463.678 1128.96L236.406 1265.85C403.203 1214.83 463.353 1225.02 491.758 1338.68C514.489 1223.02 549.787 1151.41 665.503 1008.74L491.758 1112.29L485.616 1192.14L474.208 1202.67L463.678 1128.96Z" fill="#303754"/>
<path d="M442.619 1092.09L225 1214.07C289.057 1133.34 327.667 1096.48 358.38 949.062C376.631 1043.23 427.098 1055.09 571.612 1018.38L468.944 1076.3L403.132 1045.59L389.092 1049.1L442.619 1092.09Z" fill="#303754"/>
<path d="M463.678 1128.96L236.406 1265.85C403.203 1214.83 463.353 1225.02 491.758 1338.68C514.489 1223.02 549.787 1151.41 665.503 1008.74L491.758 1112.29L485.616 1192.14L474.208 1202.67L463.678 1128.96Z" fill="#303754"/>
<path d="M1653.01 1029.41L1435.39 1151.38C1499.45 1070.65 1538.06 1033.79 1568.77 886.375C1587.02 980.538 1637.49 992.402 1782 955.697L1679.34 1013.61L1613.52 982.9L1599.48 986.41L1653.01 1029.41Z" fill="#303754"/>
<path d="M1674.08 1066.26L1446.8 1203.15C1613.6 1152.14 1673.75 1162.32 1702.16 1275.99C1724.89 1160.32 1760.19 1088.72 1875.9 946.047L1702.16 1049.59L1696.01 1129.44L1684.61 1139.97L1674.08 1066.26Z" fill="#303754"/>
<path d="M2863.4 1029.41L2645.78 1151.38C2709.84 1070.65 2748.45 1033.79 2779.16 886.375C2797.41 980.538 2847.88 992.402 2992.39 955.697L2889.73 1013.61L2823.91 982.9L2809.87 986.41L2863.4 1029.41Z" fill="#303754"/>
<path d="M2884.47 1066.26L2657.2 1203.15C2823.99 1152.14 2884.14 1162.32 2912.55 1275.99C2935.28 1160.32 2970.58 1088.72 3086.29 946.047L2912.55 1049.59L2906.4 1129.44L2895 1139.97L2884.47 1066.26Z" fill="#303754"/>
<path d="M4073.78 1029.41L3856.16 1151.38C3920.22 1070.65 3958.83 1033.79 3989.54 886.375C4007.79 980.538 4058.26 992.402 4202.78 955.697L4100.11 1013.61L4034.3 982.9L4020.26 986.41L4073.78 1029.41Z" fill="#303754"/>
<path d="M4094.86 1066.26L3867.59 1203.15C4034.38 1152.14 4094.53 1162.32 4122.94 1275.99C4145.67 1160.32 4180.97 1088.72 4296.68 946.047L4122.94 1049.59L4116.8 1129.44L4105.39 1139.97L4094.86 1066.26Z" fill="#303754"/>
<path d="M5284.17 1029.41L5066.55 1151.38C5130.61 1070.65 5169.22 1033.79 5199.93 886.375C5218.19 980.538 5268.65 992.402 5413.17 955.697L5310.5 1013.61L5244.69 982.9L5230.65 986.41L5284.17 1029.41Z" fill="#303754"/>
<path d="M5305.23 1066.26L5077.96 1203.15C5244.76 1152.14 5304.91 1162.32 5333.31 1275.99C5356.04 1160.32 5391.34 1088.72 5507.06 946.047L5333.31 1049.59L5327.17 1129.44L5315.76 1139.97L5305.23 1066.26Z" fill="#303754"/>
<path d="M6494.57 1029.41L6276.95 1151.38C6341.01 1070.65 6379.62 1033.79 6410.33 886.375C6428.58 980.538 6479.05 992.402 6623.56 955.697L6520.9 1013.61L6455.09 982.9L6441.05 986.41L6494.57 1029.41Z" fill="#303754"/>
<path d="M6515.63 1066.26L6288.36 1203.15C6455.16 1152.14 6515.31 1162.32 6543.71 1275.99C6566.44 1160.32 6601.74 1088.72 6717.46 946.047L6543.71 1049.59L6537.57 1129.44L6526.16 1139.97L6515.63 1066.26Z" fill="#303754"/>
</svg>
